<svg xmlns="http://www.w3.org/2000/svg" viewBox="25 25 450 450"><defs/><path fill="#9FBF3B" d="M301.31 83.3l20.16-29.27c1.2-1.74.9-4.03-.66-5.1-1.57-1.08-3.8-.55-5 1.2l-20.95 30.4a123.53 123.53 0 00-45.3-8.47c-16.16 0-31.5 3.03-45.3 8.47l-20.95-30.41c-1.2-1.74-3.44-2.27-5-1.2-1.56 1.08-1.86 3.36-.66 5.1L197.8 83.3c-32.06 14.91-54.55 43.26-57.41 76.34h218.32c-2.86-33.08-25.35-61.43-57.4-76.34"/><path fill="#FFF" d="M203.96 129.44a12.08 12.08 0 110-24.16 12.08 12.08 0 010 24.16M295.16 129.44a12.08 12.08 0 110-24.15 12.08 12.08 0 010 24.15"/><path fill="#9FBF3B" d="M126.38 297.6a24.35 24.35 0 01-48.7 0v-98.51a24.35 24.35 0 0148.7 0v98.5zM140.4 175.49V353.4a19.13 19.13 0 0019.13 19.14h22.63v54.74a24.35 24.35 0 1048.71 0v-54.74h37.37v54.74a24.35 24.35 0 1048.71 0v-54.74h22.63a19.13 19.13 0 0019.14-19.14V175.5H140.4zM372.73 297.6a24.35 24.35 0 0048.7 0v-98.51a24.35 24.35 0 10-48.7 0v98.5z"/></svg>