<svg xmlns="http://www.w3.org/2000/svg" enable-background="new 221.81 89.47 440 621.06" viewBox="221.81 89.47 440 621.06"><defs/><filter id="a" width="150%" height="150%" x="-5%" y="-5%"><feFlood flood-color="#000" flood-opacity=".5" result="floodFill"/><feComposite in="floodFill" in2="SourceAlpha" operator="in" result="coloredAlpha"/><feGaussianBlur in="coloredAlpha" result="blur" stdDeviation="8"/><feComposite in="blur" in2="SourceGraphic" operator="out" result="maskedOffsetBlur"/><feMerge><feMergeNode in="maskedOffsetBlur"/><feMergeNode in="SourceGraphic"/></feMerge></filter><g filter="url(#a)"><path fill="#e44d26" d="M261.85 660.65L221.8 211.52h440l-40.09 449.06-180.18 49.95z"/><path fill="#f16529" d="M441.8 672.35l145.6-40.37 34.26-383.73H441.81z"/><path fill="#ebebeb" d="M441.8 414.82h-72.88l-5.04-56.4h77.93v-55.09H303.68l1.32 14.78 13.54 151.8h123.27zm0 143.06l-.23.06-61.35-16.56-3.92-43.93H321l7.72 86.48 112.83 31.33.26-.07z"/><path d="M262.75 89.47h27.99v27.66h25.6V89.47h28v83.75h-28v-28.04h-25.6v28.04h-28V89.47zm118.4 27.77H356.5V89.47h77.29v27.77h-24.65v55.98h-28v-55.98zm64.92-27.77h29.19l17.95 29.43 17.94-29.43h29.2v83.75h-27.88v-41.51l-19.26 29.78h-.48l-19.28-29.78v41.51h-27.39V89.47zm108.2 0h28v56.07h39.38v27.68h-67.37V89.47z"/><path fill="#fff" d="M441.62 414.82v55.08h67.83l-6.4 71.44-61.43 16.58v57.3l112.92-31.28.83-9.31L568.3 429.6l1.35-14.79h-14.84zm0-111.49v55.08h133.05l1.1-12.38 2.51-27.92 1.32-14.78z"/></g></svg>